<svg xmlns="http://www.w3.org/2000/svg" xmlns:xlink="http://www.w3.org/1999/xlink" id="Layer_1" x="0px" y="0px" viewBox="0 0 1080 424.75" style="enable-background:new 0 0 1080 424.75;" xml:space="preserve"><style type="text/css">	.st0{fill:#FFFFFF;}</style><path class="st0" d="M491.06,151.5c10.14,0,15.5-5.14,15.5-14.87c0-8.72-6.96-15.82-15.5-15.82c-10,0-15.5,5.5-15.5,15.5 C475.56,146.25,480.92,151.5,491.06,151.5"></path><path class="st0" d="M1006.48,272.09c-0.02-1.26,0-150.18,0-152.5c0.12-4.34,0.28-10.27,3.9-17.65l1.12-2.29h-40.36l1.12,2.29 c3.34,6.81,3.74,12.03,3.9,17.63c0,1.3,0.02,151.11,0,152.51c-0.15,5.64-0.55,10.86-3.9,17.69l-1.12,2.29h40.35l-1.12-2.29 C1006.75,282.35,1006.59,276.41,1006.48,272.09"></path><path class="st0" d="M914.75,202.34v38.47c0,21.49-8.79,31.93-26.87,31.93c-10.82,0-21.67-6.05-32.25-17.98v-86.82l-21.83,5.55 v67.32c0,21.49-9,31.93-27.5,31.93c-8.53,0-17.37-4.31-27-13.16c0.73-3.04,1.08-6.32,1.08-10.23v-81.41l-21.83,5.55l-0.32,67.64 c0,21.91-9.1,32.56-27.82,32.56H531.22c-18.3,0-27.19-10.55-27.19-32.25v-66.43l-27.69,6.83l5.23,41.14v18.14 c0,21.91-9.1,32.56-27.82,32.56H216.06v-0.04c-0.05-45.01-0.11-151.33,0-153.43c0.34-6.42,1.85-12.65,4.63-19.05l0.96-2.22 l-39.57-0.01l0.99,2.23c3.53,7.94,3.88,13.72,3.92,18.97c0.02,2.05,0.26,143.76,0.31,167.89l-0.12,2.95l0.08,0.26l0.04,0.41 l143.39-0.18l131.91,0.57c12.31,0,22.31-4.19,29.75-12.46c7.77,8.27,18.39,12.46,31.6,12.46h214.36c12.73,0,23.01-3.99,30.53-11.85 c2.27-2.27,4.22-4.78,5.8-7.49c11.12,12.83,24.53,19.34,39.87,19.34c18.47,0,31.13-8.09,37.7-24.06 c11.06,15.97,25.6,24.06,43.25,24.06c25.17,0,41.43-17.75,41.43-45.23v-92.46l-27.7,6.84L914.75,202.34z"></path><path class="st0" d="M145.31,233.41c-0.28-18.42-5.11-33.42-14.34-44.56c-9.42-11.64-21.78-17.54-36.74-17.54h-1.43l-2.07,20.01 l2.64-1.42c3.36-1.81,6.92-2.77,10.27-2.77c13.16,0,22.35,17.05,22.35,41.45v43.77l-0.38,3.61H54.49l-3.69,16.09h97.74l-3.24-20.01 V233.41z"></path></svg>